<?xml version="1.0" encoding="UTF-8" standalone="no"?>
<svg width="203px" height="203px" viewBox="0 0 203 203" version="1.1" xmlns="http://www.w3.org/2000/svg" xmlns:xlink="http://www.w3.org/1999/xlink" xmlns:sketch="http://www.bohemiancoding.com/sketch/ns">
    <!-- Generator: Sketch 3.3.1 (12005) - http://www.bohemiancoding.com/sketch -->
    <title>Bread</title>
    <desc>Created with Sketch - Author: luannazevedo2@gmail.com</desc>
    <defs>
        <circle id="path-1" cx="101" cy="101" r="101"></circle>
    </defs>
    <g id="Page-1" stroke="none" stroke-width="1" fill="none" fill-rule="evenodd" sketch:type="MSPage">
        <g id="Bread" sketch:type="MSLayerGroup" transform="translate(100.940542, 101.442002) rotate(-15.000000) translate(-100.940542, -101.442002) translate(-0.559458, -0.057998)">
            <g id="Rectangle-6" transform="translate(0.777344, 0.304825)">
                <mask id="mask-2" sketch:name="Mask" fill="white">
                    <use xlink:href="#path-1"></use>
                </mask>
                <use id="Mask" fill="#F1A8A2" sketch:type="MSShapeGroup" xlink:href="#path-1"></use>
            </g>
            <path d="M100,140.484375 C144.735065,140.484375 178.34375,141.942665 178.34375,113.5 C178.34375,85.0573354 144.735065,62 100,62 C55.2649353,62 25.2109375,85.0573354 25.2109375,113.5 C25.2109375,141.942665 55.2649353,140.484375 100,140.484375 Z" id="Oval-1-Copy" fill="#E69630" sketch:type="MSShapeGroup"></path>
            <path d="M100,130.484375 C144.735065,130.484375 178.34375,131.942665 178.34375,103.5 C178.34375,75.0573354 144.735065,52 100,52 C55.2649353,52 25.2109375,75.0573354 25.2109375,103.5 C25.2109375,131.942665 55.2649353,130.484375 100,130.484375 Z" id="Oval-1" fill="#FAB649" sketch:type="MSShapeGroup"></path>
            <path d="M58.5439542,59.8583834 C59.1529454,70.283634 58.8804495,80.4761069 60.4130624,90.8060546 C60.7970937,93.3944596 65.9522638,97.3780872 68.8138413,94.8229219 C72.7050524,91.348374 71.8599766,57.8737453 63.7265509,57.8737453 L58.5439542,59.8583834 Z" id="Path-1" fill="#FBD873" sketch:type="MSShapeGroup"></path>
            <path d="M87.1208045,52.670011 C86.7555931,62.9774958 85.0750816,72.344084 85.9631975,82.6197286 C85.9668268,82.6617196 92.8061883,97.944715 95.785414,89.3296291 C99.7495401,77.8664875 102.750053,60.7040888 92.1882896,52.1825017 L87.1208045,52.670011 Z" id="Path-2" fill="#FBD873" sketch:type="MSShapeGroup"></path>
            <path d="M112.56065,52.5253227 C110.161559,66.7167446 109.98346,64.0327806 111.678296,84.5951695 C114.670058,120.89235 123.66288,86.2658995 122.147996,75.3420779 C121.155234,68.183276 119.123266,60.1901453 117.581313,53.1292387 L112.56065,52.5253227 Z" id="Path-3" fill="#FBD873" sketch:type="MSShapeGroup"></path>
            <path d="M135.202127,57.2788307 C135.202127,67.0547657 134.688333,75.9971147 135.202127,85.7595386 C136.173666,104.219432 153.137359,110.075171 150.176711,81.7412967 C149.004819,70.5260991 145.230928,67.6831991 140.237629,58.9273918 L135.202127,57.2788307 Z" id="Path-4" fill="#FBD873" sketch:type="MSShapeGroup"></path>
        </g>
    </g>
</svg>