<?xml version="1.0" encoding="UTF-8" standalone="no"?>
<svg width="196px" height="196px" viewBox="0 0 196 196" version="1.1" xmlns="http://www.w3.org/2000/svg" xmlns:xlink="http://www.w3.org/1999/xlink" xmlns:sketch="http://www.bohemiancoding.com/sketch/ns">
    <!-- Generator: Sketch 3.3.1 (12005) - http://www.bohemiancoding.com/sketch -->
    <title>Carrot</title>
    <desc>Created with Sketch - Author: luannazevedo2@gmail.com</desc>
    <defs>
        <ellipse id="path-1" cx="101.954332" cy="94.4660686" rx="101" ry="93.587156"></ellipse>
    </defs>
    <g id="Page-1" stroke="none" stroke-width="1" fill="none" fill-rule="evenodd" sketch:type="MSPage">
        <g id="Carrot" sketch:type="MSLayerGroup" transform="translate(98.395648, 98.000000) rotate(134.000000) translate(-98.395648, -98.000000) translate(-3.104352, 3.500000)">
            <mask id="mask-2" sketch:name="Mask" fill="white">
                <use xlink:href="#path-1"></use>
            </mask>
            <use id="Mask" fill="#ADE7D1" sketch:type="MSShapeGroup" xlink:href="#path-1"></use>
            <g id="Group" mask="url(#mask-2)" sketch:type="MSShapeGroup">
                <g transform="translate(61.954332, 13.966069)">
                    <path d="M31.4820284,125.172906 L16.4282868,151.243962 C14.7704559,154.115102 16.0046197,157.201899 19.1844906,158.104253 C19.1844906,158.104253 26.980875,160.540133 31.482029,160.918319 C35.4632166,161.252817 37.3292121,160.362315 37.3292121,160.362315 C40.5426607,159.576673 42.7780671,156.28032 42.3212571,152.993409 L40.1086293,137.072762 L52.2699729,143.735195 C55.1769099,145.327722 58.9936478,144.363177 60.7896699,141.588894 L61.4548889,140.561343 L61.8320876,138.602221 C62.4578427,135.352129 60.5527589,131.534517 57.5771854,130.075456 L48.3562433,125.553999 L31.4820284,125.172906 Z" id="Path-5" fill="#34BF7E"></path>
                    <path d="M5.0646023,91.0843998 C8.59336197,76.0318287 16.4344822,52.3183132 22.5723602,38.1323571 L37.2239444,4.26939489 C38.7571176,0.725901938 41.2408131,0.735280224 42.7683858,4.2832629 L54.8075913,32.2458556 C61.1407274,46.9553731 69.4607227,71.4738158 73.3857638,86.9893393 L78.9770058,109.091285 C80.3309681,114.443442 77.1723648,120.176548 71.8985677,121.781263 C71.8985677,121.781263 57.5130676,127.056882 44.7465717,127.056882 C29.8940199,127.056882 11.2112825,121.845765 11.2112825,121.845765 C4.23048393,120.153817 -0.0984331174,113.108273 1.53907675,106.123175 L5.0646023,91.0843998 Z" id="Triangle-1" fill="#F3863F"></path>
                    <path d="M28.6115539,24.3288889 L51.3885995,24.3288889 L52.8571429,27.9066667 L27.1428571,27.9066667 L28.6115539,24.3288889 Z" id="Rectangle-1" fill="#F7A14C"></path>
                    <path d="M5.53057013,90.8755556 L74.7803682,90.8755556 L75.6718302,94.4533333 L4.67377462,94.4533333 L5.53057013,90.8755556 Z" id="Rectangle-1-Copy" fill="#F7A14C"></path>
                    <path d="M18.6650653,47.9422222 L61.3570364,47.9422222 L62.7266639,51.52 L17.1428571,51.52 L18.6650653,47.9422222 Z" id="Rectangle-1-Copy-2" fill="#F7A14C"></path>
                    <path d="M11.4407439,67.2622222 L67.9634869,67.2622222 L69.1134175,70.84 L10.3265661,70.84 L11.4407439,67.2622222 Z" id="Rectangle-1-Copy-3" fill="#F7A14C"></path>
                </g>
            </g>
        </g>
    </g>
</svg>