<?xml version="1.0" encoding="UTF-8" standalone="no"?>
<svg width="52px" height="53px" viewBox="0 0 52 53" version="1.1" xmlns="http://www.w3.org/2000/svg" xmlns:xlink="http://www.w3.org/1999/xlink" xmlns:sketch="http://www.bohemiancoding.com/sketch/ns">
    <!-- Generator: Sketch 3.3.1 (12005) - http://www.bohemiancoding.com/sketch -->
    <title>Megaphone</title>
    <desc>Created with Sketch - Author: luannazevedo2@gmail.com</desc>
    <defs></defs>
    <g id="Page-1" stroke="none" stroke-width="1" fill="none" fill-rule="evenodd" sketch:type="MSPage">
        <g id="Megaphone" sketch:type="MSLayerGroup" transform="translate(0.000000, -1.000000)" stroke="#000000">
            <rect id="Rectangle-5" sketch:type="MSShapeGroup" x="9.14008628" y="27.5" width="7.71982744" height="26" rx="2"></rect>
            <rect id="Rectangle-6" fill="#FFFFFF" sketch:type="MSShapeGroup" x="0" y="10" width="30" height="26"></rect>
            <path d="M29,10.443104 L46.4865099,1.05473873 C46.975918,0.79197952 47.3726616,1.01915997 47.3726616,1.57026134 L47.3726616,44.0631028 C47.3726616,44.6105772 46.9718359,44.8429016 46.4865099,44.5868245 L29,35.3602535 L29,10.443104 Z" id="Rectangle-7" sketch:type="MSShapeGroup"></path>
            <rect id="Rectangle-8" sketch:type="MSShapeGroup" x="46.3726616" y="18.5" width="5" height="9"></rect>
            <path d="M16,40 L18.0010434,40 C18.5527519,40 19,40.4520186 19,40.9937145 L19,42.8720847 L19,43.0074678 C19,43.5556282 18.5573397,44 18.0010434,44 L16,44 L16,40 Z" id="Rectangle-9" sketch:type="MSShapeGroup"></path>
        </g>
    </g>
</svg>